<svg width="2449" height="417" viewBox="0 0 2449 417" xmlns="http://www.w3.org/2000/svg" preserveAspectRatio="xMinYMid meet"><path d="M2342 140v200h45.621v-100.07c0-25.107 19.153-52.777 60.88-60.93v-42c-28.654 1.58-53.25 20.46-63.346 35.202h-.411l-3.234-32.202h-39.51zm-210 100.615v-.82c0-61.509 29.934-105.795 91.853-105.795 57.408 0 84.062 33.215 84.062 102.925 0 7.381-.519 17.569-1.314 25.075h-126.745c3.275 28.171 19.694 45 53.394 45 21.323 0 41.358-1.995 59.928-4.426v38.204c-20.866 3.274-38.571 5.222-61.124 5.222-65.609 0-100.054-32.805-100.054-105.385zm47.157-12.615h82.422c0-31.294-8.201-56-38.956-56-31.985 0-42.646 26.353-43.466 56zm-256.157-88v200h45.621v-105.185c0-31.843 24.854-57.305 47.142-58.875 24.594-1.732 37.113 11.008 37.113 43.529v120.531h45.621v-129.932c0-50.948-23.41-76.068-70.582-76.068-27.929 0-51.02 15.76-62.018 33h-.537c-.813-7.146-2.653-27-2.653-27h-39.707zm-215 0v200h45.621v-105.185c0-31.843 24.854-57.305 47.142-58.875 24.594-1.732 37.113 11.008 37.113 43.529v120.531h45.621v-129.932c0-50.948-23.41-76.068-70.582-76.068-27.929 0-51.02 15.76-62.018 33h-.537c-.813-7.146-2.653-27-2.653-27h-39.707zm-179.717-3.87c19.821-1.641 41.319-2.13 62.082-2.13 48.909 0 78.09 18.906 78.09 72.336v133.664h-41.021l-2.037-20.007h-.534c-14.066 15.156-34.498 24.007-60.665 24.007-34.658 0-62.198-22.447-62.198-66.93 0-41.371 34.497-79.892 120.834-61.569v-12.042c0-23.838-13.975-30.498-41.512-30.498-16.903 0-31.237 1.145-53.039 3.01v-39.841zm94.551 111.018c-36.579-9.305-73.158 2.127-73.158 30.401 0 18.754 12.446 29.773 31.003 28.948 14.625-.65 30.725-7.14 42.155-17.262v-42.087zm-155.214-187.148l-45.62 5.289v274.711h45.62v-280zm-261.62 80h38.534l2.48 21.659h.734c13.378-16.182 35.768-27.659 61.607-27.659 51.268 0 78.747 38.143 78.747 102.946v2.051c0 62.342-27.48 107.047-84.9 107.047-20.097 0-39.784-7.793-51.678-16.816v87.772h-45.526v-277zm45.526 58.572v92.102c9.433 7.383 24.609 13.945 39.374 13.945 38.553 0 49.627-29.94 49.627-65.213 0-31.991-6.152-62.998-43.475-62.998-18.046 0-35.494 10.614-45.526 22.163zm-184.847 41.428c.127-43.696 19.053-66.999 56.735-66.999 15.919 0 32.101 1.974 46.788 3.949v-36.951c-12.062-2.417-32.052-5-52.564-5-56.194 0-98.469 30.929-98.639 105 .17 74.071 42.446 105 98.639 105 20.511 0 40.501-2.583 52.564-5v-36.951c-14.687 1.975-30.87 3.949-46.788 3.949-37.682 0-56.609-23.303-56.735-66.999zm-264.679 1.025v-2.05c0-66.839 30.754-104.975 94.313-104.975 63.149 0 93.903 38.135 93.903 104.975v2.05c0 66.839-30.754 104.975-93.903 104.975-63.559 0-94.313-38.135-94.313-104.975zm94.207-69.025c-32.3 0-47.207 21.916-47.207 67.704s14.907 67.296 47.207 67.296 46.793-21.442 46.793-67.296c0-45.854-14.493-67.704-46.793-67.704zm-336.207 168v-280h70.326c97.996 0 143.601 29.43 143.601 140s-45.604 140-143.601 140h-70.326zm161.547-140c0-62.949-12.777-94.718-80.31-94.718h-31.302v189.436h31.302c67.533 0 80.31-31.769 80.31-94.718zm-488.616 123.285l66.006 76.715 65.796-47.805-64.236-106.279c-29.012 17.895-57.456 52.582-67.566 77.369zm-94.887 76.6c54.237-110.615 157.826-192.551 281.955-217.001l-25.225-77.703c-150.598 17.006-278.728 108.28-347.298 236.453l90.568 58.252zm19.765-263.806l-132.695-31.245-25.114 77.481 92.133 38.894c18.894-19.109 40.011-35.773 63.231-50.012 31.453-19.336 58.905-32.125 105.585-48.135l-10.336-123.062h-81.356l-11.448 136.078z" fill="#00C3A5"/></svg>